<svg width="500" height="500" viewbox="-50 150 500 250" xmlns="http://www.w3.org/2000/svg">

        <g>
            <svg id="left" viewbox="0 0 700 700" x="-50" y="75" height="250" width="250">
                <rect class="debug" x=0 y=0 width="100%" height="100%" style="fill:#ff000070"></rect>
                <g style="transform: translateX(300px) translateY(100px) scale(0.9)">
                    <path class="left eye"></path>
                </g>
            </svg>
            <svg viewbox="-40 0 700 700" id="right" x="90" y="75" height="250" width="250">
                <rect class="debug" x=-40 y=0 width="100%" height="100%" style="fill:#00ff0070"></rect>
                <g transform="translate(-550,100) scale(-0.9,0.9)" style="transform-origin: 500px 0">
                    <path class="right eye"></path>
                </g>
            </svg>
        </g>
        <g id="zzz">
            <text xml:space="preserve" style="font-size:30pt">
                <tspan x="50" y="100">Z</tspan>
            </text>

            <text xml:space="preserve" style="font-size:20pt">
                <tspan x="10" y="80">Z</tspan>
            </text>

            <text xml:space="preserve" style="font-size:12pt">
                <tspan x="-20" y="65">Z</tspan>
            </text>

        </g>
        <path class="roof"
            d="m 10,150 l 100,-38 0,-15 15,0 0,9 20,-8 q 15,-6 30,0 l 135,50 c 3,1.5 6,6 -10,0 l -125,-45 q -15,-6 -30,0 l -125,45 c -6,3 -20,6 -10,0 " />

        <g class="waves emitting">
            <path id="medium-wave" class="mouth" style="fill:#646464;stroke:none;"
                transform="scale(0.75,0.5) translate(50, 270)" d="M 30,340 q 125,100 250,0 q -125,50 -250,0 z" />
            <path id="small-wave" class="mouth" style="fill:#c8c8c8;stroke:none;"
                transform="scale(0.5,0.25) translate(150, 800)" d="M 30,340 q 125,100 250,0 q -125,50 -250,0 z" />
        </g>
        <g transform="scale(0.7,0.9) translate(60,0)">
            <path id="mouth" class="mouth" d="M 35,300 q 125,75 250,0 q -125,50 -250,0 z" />
        </g>

        <path id="tongue" d="M 129,337 q 25,2 50,0 q -25,50 -50,0 z" />

        <path class="letter" d="m 125,250 0,-200 z" />
        <text xml:space="preserve" id="text">
            <tspan x="40" y="380"></tspan>
        </text>
    </svg>